<?xml version="1.0" standalone="no"?>
<!DOCTYPE svg PUBLIC "-//W3C//DTD SVG 20010904//EN"
 "http://www.w3.org/TR/2001/REC-SVG-20010904/DTD/svg10.dtd">
<svg version="1.0" xmlns="http://www.w3.org/2000/svg"
 width="1024.000000pt" height="1024.000000pt" viewBox="0 0 1024.000000 1024.000000"
 preserveAspectRatio="xMidYMid meet">

<g transform="translate(0.000000,1024.000000) scale(0.100000,-0.100000)"
fill="#000000" stroke="none">
<path d="M5380 7270 c-549 -59 -1091 -330 -1515 -755 -219 -219 -370 -435
-613 -871 -228 -411 -348 -593 -533 -814 -308 -367 -703 -652 -1144 -824 -66
-26 -141 -57 -167 -68 -206 -92 -165 -382 56 -396 53 -3 77 2 176 38 468 173
880 440 1247 809 294 296 474 547 752 1046 229 411 342 575 520 759 580 598
1315 805 2025 572 155 -51 326 -132 381 -179 l39 -34 -95 -6 c-472 -29 -893
-313 -1112 -752 -194 -389 -206 -822 -33 -1232 170 -403 515 -745 981 -973
342 -167 698 -263 1175 -316 195 -21 832 -32 894 -14 55 15 111 60 136 111 39
76 20 189 -42 245 -53 49 -87 58 -218 61 -717 17 -1077 64 -1450 189 -128 43
-376 163 -485 234 -470 308 -710 783 -630 1243 84 481 512 825 957 768 291
-38 501 -195 647 -488 47 -95 92 -116 149 -68 54 45 64 164 31 373 -41 264
-222 582 -456 803 -300 283 -662 460 -1071 525 -116 18 -481 27 -602 14z"/>
</g>
</svg> 